#!OML:ASF F:\VICON\USERDATA\INSTALL\rory3\rory3.ASF
:FULLY-SPECIFIED
:DEGREES
590
root 4.97557 16.5432 2.1952 6.20567 -13.0246 -7.1798
lowerback 20.5939 -0.955503 4.63065
upperback 4.20327 -0.184263 1.49718
thorax -6.94546 -0.183702 -0.971045
lowerneck -14.6119 -0.36135 -2.02982
upperneck 37.0788 0.511384 -1.59167
head 15.4899 -0.364149 -0.248202
rclavicle -3.83654e-014 4.37326e-015
rhumerus -37.6907 0.844833 -7.22178
rradius 26.7098
rwrist 13.6506
rhand -23.6716 -50.3541
rfingers 7.12502
rthumb 2.79447 -80.3156
lclavicle -3.83654e-014 4.37326e-015
lhumerus -34.8321 -1.24198 0.629607
lradius 23.1308
lwrist 9.84614
lhand -22.596 -28.1869
lfingers 7.12502
lthumb 3.83324 1.75839
rfemur -104.08 0.948263 27.9801
rtibia 101.635
rfoot 49.4979 5.32067
rtoes -4.53244
lfemur -30.4986 2.89204 -23.1972
ltibia 49.845
lfoot -22.323 9.37025
ltoes 15.0385
591
root 4.97477 16.5454 2.19507 6.27119 -12.9437 -7.18335
lowerback 20.4715 -0.989078 4.65414
upperback 4.23309 -0.232106 1.49233
thorax -6.85057 -0.205051 -0.978385
lowerneck -14.6631 -0.3675 -1.9971
upperneck 37.0462 0.509375 -1.63366
head 15.4863 -0.365892 -0.272034
rclavicle -6.16232e-015 2.0276e-014
rhumerus -37.669 0.815418 -7.29321
rradius 26.7431
rwrist 13.5551
rhand -23.8482 -50.3385
rfingers 7.12502
rthumb 2.62393 -80.3022
lclavicle -6.16232e-015 2.0276e-014
lhumerus -34.8313 -1.19423 0.664269
lradius 23.082
lwrist 9.90733
lhand -22.6626 -28.3874
lfingers 7.12502
lthumb 3.76891 1.55898
rfemur -104.133 0.863892 28.0102
rtibia 101.64
rfoot 49.6838 4.92212
rtoes -3.63636
lfemur -30.5648 2.81022 -23.1793
ltibia 49.8112
lfoot -22.3006 9.30465
ltoes 15.5516
592
root 4.97462 16.5513 2.19731 6.25134 -12.8887 -7.13692
lowerback 20.4109 -1.00693 4.62149
upperback 4.24709 -0.266384 1.49254
thorax -6.80494 -0.219906 -0.951384
lowerneck -14.8035 -0.394946 -1.96885
upperneck 37.152 0.494627 -1.71025
head 15.5731 -0.380727 -0.313975
rclavicle 1.49089e-015 7.55382e-015
rhumerus -37.6521 0.82782 -7.28494
rradius 26.6996
rwrist 13.6092
rhand -24.0785 -50.3458
rfingers 7.12502
rthumb 2.40155 -80.3121
lclavicle 1.49089e-015 7.55382e-015
lhumerus -34.8833 -1.09741 0.674271
lradius 23.0712
lwrist 9.79471
lhand -22.7225 -28.4334
lfingers 7.12502
lthumb 3.71104 1.51408
rfemur -104.1 0.758868 28.0047
rtibia 101.643
rfoot 49.7449 4.84696
rtoes -3.29501
lfemur -30.4943 2.73988 -23.2247
ltibia 49.747
lfoot -22.2999 9.34042
ltoes 14.6098
593
root 4.97192 16.5564 2.19999 6.1918 -12.9005 -7.20584
lowerback 20.4105 -0.9954 4.64539
upperback 4.26277 -0.244993 1.52155
thorax -6.78648 -0.209428 -0.939286
lowerneck -14.9163 -0.395887 -1.86934
upperneck 37.3286 0.514705 -1.83517
head 15.6893 -0.378631 -0.384366
rclavicle 1.23246e-014 -2.22639e-014
rhumerus -37.7229 0.900976 -7.27817
rradius 26.759
rwrist 13.6034
rhand -24.1633 -50.4979
rfingers 7.12502
rthumb 2.31965 -80.465
lclavicle 1.23246e-014 -2.22639e-014
lhumerus -34.9607 -0.966729 0.658232
lradius 23.2147
lwrist 9.61552
lhand -22.6409 -28.5205
lfingers 7.12502
lthumb 3.78985 1.42556
rfemur -103.943 0.789483 28.1059
rtibia 101.591
rfoot 49.3046 6.17593
rtoes -4.46113
lfemur -30.38 2.76426 -23.1256
ltibia 49.6795
lfoot -22.2647 9.32905
ltoes 14.2354
594
root 4.97027 16.5577 2.20109 6.18206 -12.9008 -7.27506
lowerback 20.4143 -0.992075 4.70881
upperback 4.2284 -0.225021 1.52754
thorax -6.8249 -0.201939 -0.973646
lowerneck -14.787 -0.383527 -1.79612
upperneck 37.3205 0.521012 -1.87823
head 15.6542 -0.37115 -0.414148
rclavicle 4.67144e-015 -8.74653e-015
rhumerus -37.8422 1.07387 -7.33334
rradius 26.9085
rwrist 13.4287
rhand -23.842 -50.6132
rfingers 7.12502
rthumb 2.62996 -80.5767
lclavicle 4.67144e-015 -8.74653e-015
lhumerus -34.9785 -0.902639 0.615748
lradius 23.3226
lwrist 9.49967
lhand -22.3538 -28.33
lfingers 7.12502
lthumb 4.06717 1.6109
rfemur -103.871 0.815304 28.193
rtibia 101.553
rfoot 49.5408 5.50262
rtoes -3.62294
lfemur -30.3263 2.79068 -23.0387
ltibia 49.6145
lfoot -22.2427 9.29991
ltoes 15.1327
595
root 4.97079 16.5599 2.20131 6.21056 -12.9014 -7.29303
lowerback 20.4167 -1.00434 4.73559
upperback 4.1721 -0.232826 1.5227
thorax -6.88797 -0.207908 -0.991541
lowerneck -14.6666 -0.377176 -1.83104
upperneck 37.2821 0.507564 -1.80338
head 15.6053 -0.370691 -0.377309
rclavicle 2.03754e-014 1.19271e-015
rhumerus -37.8726 1.19312 -7.3747
rradius 26.9789
rwrist 13.3401
rhand -23.5347 -50.5872
rfingers 7.12502
rthumb 2.92676 -80.5468
lclavicle 2.03754e-014 1.19271e-015
lhumerus -35.0121 -0.932333 0.581723
lradius 23.3009
lwrist 9.47028
lhand -22.2291 -27.9177
lfingers 7.12502
lthumb 4.1875 2.02089
rfemur -103.867 0.80516 28.2249
rtibia 101.515
rfoot 49.6176 5.27266
rtoes -3.5429
lfemur -30.3251 2.77448 -23.0243
ltibia 49.557
lfoot -22.2257 9.3289
ltoes 15.469
